#!OML:ASF E:/inclinewalkrobotboard/Project1/Captureday1/Session1/subject1.ASF
:FULLY-SPECIFIED
:DEGREES
126
root 0 0 0 1.421068036705039 -3.514251922001349 1.9195878789048229
lowerback 11.96515205794334 0.8785022295604121 -0.13283909274289718
upperback -4.426136100176346 1.0963350344139884 -0.6270856968899589
thorax -11.545997992284212 0.5037977717181673 -0.8432505359855379
lowerneck -6.106350257232493 1.6511794546834124 4.612235899407655
upperneck 18.447591158425478 3.152346730247898 -8.261570284953518
head 6.781021903129453 1.1615544557307618 -3.1844899356291627
rclavicle -1.75551452559697E-16 -9.7091206292713E-16
rhumerus 22.19057089465067 15.926534203330712 -46.563015188321785
rradius 74.28008978373472
rwrist 27.876275424929116
rhand -34.84447517011603 -59.706229333190116
rfingers 7.12502
rthumb -8.004639822533221 -89.5193595927083
lclavicle -1.723873230191614E-16 -9.480227899975396E-16
lhumerus 22.846299564269696 -12.808672996197425 43.59544586700329
lradius 71.36209165368662
lwrist -23.664159267571584
lhand -45.35440345529458 -73.28646562640377
lfingers 7.12502
lthumb -18.110383315418694 -44.068569764388826
rfemur -25.48945888126195 -2.099697685084558 16.768222985411196
rtibia 54.57099685268863
rfoot -27.18340657924127 -16.391268887310197
rtoes -17.52020980493812
lfemur -21.89755563942091 1.2572715730643738 -18.16272029633794
ltibia 48.785328320738884
lfoot -23.8324792104084 -3.6168660319220907
ltoes -15.50749554961731
127
root 0 0 0 1.423552214422823 -3.528666689036484 1.9012873624764495
lowerback 11.96600005068065 0.886956532077616 -0.1117876558360602
upperback -4.429894745322551 1.109931435416963 -0.6278702586119204
thorax -11.549428602281257 0.5099135260674967 -0.8579680635945354
lowerneck -6.102297976099889 1.6511416544403474 4.6176875433551094
upperneck 18.44775270353326 3.1535067424450394 -8.264316726353446
head 6.780701179881452 1.1620302194793783 -3.1865547043660865
rclavicle -1.7476670395262383E-16 -9.706139061901818E-16
rhumerus 22.21325834853586 15.941089121685865 -46.54911143076036
rradius 74.30050514970802
rwrist 27.886451844359833
rhand -34.851905582067026 -59.74056586167596
rfingers 7.12502
rthumb -8.01190070279896 -89.55337631020173
lclavicle -1.7210656361830882E-16 -9.487019641124173E-16
lhumerus 22.836556661158898 -12.806504655652818 43.601930031667806
lradius 71.35467920776111
lwrist -23.659518420856262
lhand -45.35122740379994 -73.27129477252856
lfingers 7.12502
lthumb -18.107690435201643 -44.05238105612476
rfemur -25.46742722754856 -2.0897227133952248 16.783293507749434
rtibia 54.54833638106811
rfoot -27.157527324340712 -16.376360275849567
rtoes -17.490165616385077
lfemur -21.905476175310945 1.2585139078279104 -18.160928918196046
ltibia 48.792499692226684
lfoot -23.840387308286736 -3.615691083422808
ltoes -15.511452000435138
128
root 0 0 0 1.4256868893775785 -3.5406682743366957 1.886139496977053
lowerback 11.966681766413783 0.8939809022187317 -0.09436442598100925
upperback -4.433078494040333 1.121203242855578 -0.6285395645858364
thorax -11.552340731689323 0.5149823931401986 -0.8701443241321886
lowerneck -6.098875096279554 1.6511686079367556 4.622236319729596
upperneck 18.447864204024185 3.154558203615641 -8.266664421311475
head 6.7804061099689195 1.1624732890199803 -3.188272092698541
rclavicle -1.7444862324020116E-16 -9.70528975109085E-16
rhumerus 22.22664753474647 15.949971236862767 -46.541096326509546
rradius 74.31295263884843
rwrist 27.892459690048295
rhand -34.85631196341268 -59.76155914317197
rfingers 7.12502
rthumb -8.016215178269908 -89.57419028069339
lclavicle -1.7234268501874966E-16 -9.487347585399477E-16
lhumerus 22.82041631719358 -12.802452192721884 43.6131809947356
lradius 71.34201590019345
lwrist -23.651031132740908
lhand -45.34576010307643 -73.24323245234658
lfingers 7.12502
lthumb -18.10250563158371 -44.02469580487343
rfemur -25.469022907400976 -2.0907802754511806 16.781877680860127
rtibia 54.55106566244878
rfoot -27.160502809872142 -16.37780833191128
rtoes -17.49328816309279
lfemur -21.898908105541324 1.2561762114727713 -18.162055459495512
ltibia 48.77892780105674
lfoot -23.83235919445304 -3.6132636033674888
ltoes -15.503063984989094
129
root 0 0 0 1.4273663275763768 -3.5489658186452213 1.8759821690620024
lowerback 11.967214633032615 0.8988351107684767 -0.08249649667952041
upperback -4.4355272253947735 1.1289575154277611 -0.6291347455188602
thorax -11.55467823171417 0.5184739833253128 -0.8785989356733016
lowerneck -6.095990378096222 1.6514400547015955 4.625706757585543
upperneck 18.44786412012865 3.155656206592997 -8.268745597105937
head 6.78007745168437 1.1629389340310659 -3.1896077728264136
rclavicle -1.7422331077948534E-16 -9.70453887988989E-16
rhumerus 22.23587736305727 15.956108916401268 -46.53564069745315
rradius 74.3215488457862
rwrist 27.8965759076521
rhand -34.85936997701858 -59.776048381154915
rfingers 7.12502
rthumb -8.019204141361687 -89.58849084387884
lclavicle -1.7258897179865443E-16 -9.488347981719805E-16
lhumerus 22.803987137380343 -12.79834598080593 43.62458051358688
lradius 71.32913826570666
lwrist -23.642432763519157
lhand -45.34022464467232 -73.21472839932966
lfingers 7.12502
lthumb -18.097277204274945 -43.99662632423376
rfemur -25.48734879282719 -2.0997091597226394 16.768749432144507
rtibia 54.57208209072584
rfoot -27.183715134143316 -16.390351763628694
rtoes -17.51965099802369
lfemur -21.879755344618033 1.250871819590389 -18.165683075222965
ltibia 48.748663898579096
lfoot -23.811164019346762 -3.6102481023156736
ltoes -15.484864619785677
130
root 0 0 0 1.4281235239418995 -3.5531994044727417 1.8706218496327824
lowerback 11.967397406114268 0.9013014308399974 -0.07641165546962192
upperback -4.436611758548784 1.132896637021698 -0.6293442554680847
thorax -11.55564449155908 0.5202406348431792 -0.8827916011776861
lowerneck -6.09494450556418 1.6514211775977812 4.627193585243814
upperneck 18.44787767725932 3.155986049730402 -8.269467782377038
head 6.779975884296784 1.1630880723316022 -3.1901460157652295
rclavicle -1.7466596273208512E-16 -9.706214690969336E-16
rhumerus 22.22928821386062 15.952356759303969 -46.54007328542779
rradius 74.31609484985063
rwrist 27.89353983729883
rhand -34.857287815468624 -59.766972520971265
rfingers 7.12502
rthumb -8.017138882844746 -89.57938598508838
lclavicle -1.7328663483622362E-16 -9.482766572378504E-16
lhumerus 22.783598423563515 -12.793015615118238 43.63896884387823
lradius 71.31297085632329
lwrist -23.63133635660078
lhand -45.333275518911634 -73.17767231406738
lfingers 7.12502
lthumb -18.09039278572392 -43.96126730495928
rfemur -25.512495733436133 -2.1116578261884076 16.751048927305895
rtibia 54.599965709089005
rfoot -27.21467649122058 -16.407748552362108
rtoes -17.555273726597353
lfemur -21.862972999573355 1.2463527972458701 -18.169209943392072
ltibia 48.72227759556813
lfoot -23.792736155305402 -3.6077314199590034
ltoes -15.469412669994185
131
root 0 0 0 1.4289803619446504 -3.5551296250073006 1.8690267039276598
lowerback 11.967723477942185 0.9024386852486852 -0.07399202706088281
upperback -4.437783286158641 1.1346533173964515 -0.6298196705395408
thorax -11.55699221639025 0.5210459875626614 -0.884951394756024
lowerneck -6.092909153469064 1.6521012919634621 4.6288866409390215
upperneck 18.447743561580022 3.157144569509821 -8.27112401405573
head 6.779616780202126 1.1635682136031034 -3.1908664754788933
rclavicle -1.741402907948883E-16 -9.703901091057283E-16
rhumerus 22.239538740183093 15.958626665445875 -46.53362392173548
rradius 74.32498010242068
rwrist 27.898114585197007
rhand -34.860608443273414 -59.78170846674916
rfingers 7.12502
rthumb -8.020398803281164 -89.59397145170237
lclavicle -1.7292387407091424E-16 -9.489987610067937E-16
lhumerus 22.77918241196193 -12.792182547542224 43.6417514676299
lradius 71.30971226840558
lwrist -23.629493813541476
lhand -45.33189655309004 -73.17179923318895
lfingers 7.12502
lthumb -18.089399268414958 -43.95411625970311
rfemur -25.542656404333997 -2.126155987491117 16.729588065723544
rtibia 54.63378421298114
rfoot -27.252389038760626 -16.427732335029383
rtoes -17.59779839742083
lfemur -21.837201457329783 1.2397371829285044 -18.17395892213947
ltibia 48.68531069074136
lfoot -23.765357116002825 -3.605143165317904
ltoes -15.447119082595158
132
root 0 0 0 1.429263590920974 -3.554411809003116 1.87056990504458
lowerback 11.967810122366982 0.9020115126928991 -0.07536564024784898
upperback -4.438085390400246 1.1339033242179768 -0.6300384816937564
thorax -11.557460307881861 0.5207165241148071 -0.8843019126404362
lowerneck -6.09204640493596 1.6526023916948096 4.629283876921809
upperneck 18.447621415522363 3.1578269322652717 -8.271899440158178
head 6.779403804652699 1.1638521896704832 -3.1910659300197577
rclavicle -1.740840896483374E-16 -9.703786662093209E-16
rhumerus 22.24021196792345 15.959031513739541 -46.53319669200633
rradius 74.32561770995311
rwrist 27.898416304463563
rhand -34.86081055128892 -59.782688359824206
rfingers 7.12502
rthumb -8.020616244269503 -89.59497123875374
lclavicle -1.729952937924039E-16 -9.490253971195365E-16
lhumerus 22.774645235038097 -12.791030213632006 43.64493552415356
lradius 71.30613326509574
lwrist -23.62708997987946
lhand -45.330344254750976 -73.16390731985794
lfingers 7.12502
lthumb -18.0879174199608 -43.94626624926137
rfemur -25.574297477607924 -2.1411481193728497 16.70727266008757
rtibia 54.6684788676029
rfoot -27.29159745293051 -16.44914406469862
rtoes -17.642340132234928
lfemur -21.813594921239346 1.2337862907153663 -18.178431933745497
ltibia 48.65164640646455
lfoot -23.739975707583433 -3.602965479620491
ltoes -15.426889351890633
